<?xml version="1.0" encoding="UTF-8"?>
<svg version="1.1" xmlns="http://www.w3.org/2000/svg" width="128" height="128">
<path d="M0 0 C2.67927341 4.01891012 2.15601248 6.24161923 2 11 C2.94875 11.061875 3.8975 11.12375 4.875 11.1875 C13.91229692 12.53853025 21.52398883 17.84718027 27 25 C31.55416275 32.63988086 34.07943419 39.10368069 34.17578125 48.0078125 C34.21155273 49.73644531 34.21155273 49.73644531 34.24804688 51.5 C34.2905958 53.89305495 34.32207145 56.2863356 34.34179688 58.6796875 C34.57118397 68.28193811 36.06247767 77.35480346 42.5 84.875 C43.098125 85.60460937 43.69625 86.33421875 44.3125 87.0859375 C45.65372583 88.60723532 47.06590904 90.06590904 48.5 91.5 C50.48725826 94.8120971 50.20616693 97.05530332 49.84765625 100.81640625 C48.57575604 104.09286808 46.97922457 105.13388653 44 107 C40.89944793 107.58757298 37.84778576 107.55701487 34.69921875 107.53344727 C33.30565659 107.54637062 33.30565659 107.54637062 31.88394165 107.55955505 C28.81817635 107.58222648 25.75332418 107.57547429 22.6875 107.56640625 C20.55427783 107.57164104 18.42105799 107.57791699 16.2878418 107.58518982 C11.8190623 107.59559602 7.3506012 107.59102883 2.88183594 107.57641602 C-2.84510317 107.55922197 -8.57103959 107.58273056 -14.29786682 107.61790562 C-18.70225677 107.63986363 -23.10640617 107.63844206 -27.51083374 107.6301403 C-29.62235616 107.62932003 -31.73389611 107.63619789 -33.84536743 107.65091133 C-36.79727886 107.66832875 -39.74738022 107.65383803 -42.69921875 107.63110352 C-44.00697769 107.64864182 -44.00697769 107.64864182 -45.34115601 107.66653442 C-49.68625915 107.59843641 -51.46887231 107.40830307 -55.01879883 104.67930603 C-57.50602001 101.31567653 -58 99.17048698 -58 95 C-56.88614314 92.2849739 -55.42957985 90.45074142 -53.4140625 88.3359375 C-44.74261866 79.13436172 -42.28646846 69.42392609 -42.375 57 C-42.375 42.47728351 -40.58056293 30.98731648 -30.26953125 20.1875 C-24.33571586 14.75609004 -18.01052919 11.6675441 -10 11 C-10.061875 9.741875 -10.12375 8.48375 -10.1875 7.1875 C-10.16934383 4.62294156 -10.1515987 3.28536227 -8.9375 1 C-5.87672462 -0.57975504 -3.36875585 -0.36750064 0 0 Z " fill="#000000" transform="translate(68,0)"/>
<path d="M0 0 C13.2 0 26.4 0 40 0 C38.65886891 6.70565546 36.27476704 10.15175178 31 14.4375 C25.15827365 17.3903201 17.74208254 17.01185912 11.55859375 15.33984375 C6.65940124 13.19237986 3.33187691 9.81387465 1 5 C0.67 3.35 0.34 1.7 0 0 Z " fill="#000000" transform="translate(44,112)"/>
</svg>
