<?xml version="1.0" encoding="UTF-8"?>
<svg version="1.1" xmlns="http://www.w3.org/2000/svg" width="64" height="64">
<path d="M0 0 C-0.2578125 1.86328125 -0.2578125 1.86328125 -1 4 C-2.7421875 5.16796875 -2.7421875 5.16796875 -4.875 6.1875 C-8.98646629 8.62937264 -10.33716121 10.68717346 -11.55859375 15.265625 C-12.276482 19.71272034 -12.4725596 24.16877523 -12.59375 28.66796875 C-13.26539055 34.17671289 -15.70586048 37.60781398 -19 42 C-5.14 42.33 8.72 42.66 23 43 C21.35 40.69 19.7 38.38 18 36 C18.1875 33.0625 18.1875 33.0625 19 31 C20.75 31.125 20.75 31.125 23 32 C25.125 34.9375 25.125 34.9375 27 38 C27.66 38.66 28.32 39.32 29 40 C28.43181818 45.56818182 28.43181818 45.56818182 27 47 C24.46950598 47.07313567 21.96695163 47.09247527 19.4375 47.0625 C18.72658203 47.05798828 18.01566406 47.05347656 17.28320312 47.04882812 C15.52209987 47.03700864 13.76103964 47.01907263 12 47 C11.55333984 48.18142578 11.55333984 48.18142578 11.09765625 49.38671875 C9.77374334 52.53866799 9.0776565 53.50062888 6 55 C2.89166131 55.52969817 0.10039204 55.60792001 -3 55 C-5.75569447 52.81840855 -7.43588747 51.12822506 -9 48 C-11.5263765 47.71371668 -13.96566825 47.53282808 -16.5 47.4375 C-23.88075264 47.11924736 -23.88075264 47.11924736 -25 46 C-25.375 42.8125 -25.375 42.8125 -25 39 C-23.78198151 37.49350344 -22.55713962 35.98908044 -21.2421875 34.56640625 C-17.56661209 29.93148254 -17.92122056 23.60929341 -17.6875 18 C-17.29438178 11.88045966 -16.48058769 7.3817512 -12 3 C-7.94618985 0.11246459 -4.90074527 -1.64813482 0 0 Z M-3 47 C-2.01 48.485 -2.01 48.485 -1 50 C2.08365871 50.2502157 2.08365871 50.2502157 5 50 C5.33 49.01 5.66 48.02 6 47 C3.03 47 0.06 47 -3 47 Z " fill="#000000" transform="translate(25,9)"/>
<path d="M0 0 C7.2595735 6.71510548 7.2595735 6.71510548 7.73828125 11.88671875 C7.89957533 18.65258094 7.84557137 22.98917508 3.5 28.3125 C-0.45608303 31.88573628 -4.14819573 33.62799365 -9.5 33.875 C-14.47386749 33.59187216 -18.50639313 32.32845715 -22.5 29.3125 C-26.7372039 23.98883356 -27.9100022 19.615251 -27.8515625 12.953125 C-27.15072211 7.68903495 -24.22144391 3.8820518 -20.375 0.375 C-14.31948336 -3.05645943 -6.1491942 -2.96479006 0 0 Z M-21.5 9.3125 C-22.70643566 12.93180698 -22.82268559 15.50481005 -22.5 19.3125 C-20.24665796 23.65226986 -18.04633071 26.40938482 -13.5 28.3125 C-8.48657251 28.84965295 -5.48742057 28.43777558 -1.5 25.3125 C1.72016619 22.35342837 2.79122958 20.15839317 3 15.875 C2.79115808 11.39981592 1.49256881 8.72070337 -1.5 5.3125 C-9.02481707 0.77247467 -16.10633996 2.71489799 -21.5 9.3125 Z " fill="#000000" transform="translate(56.5,1.6875)"/>
<path d="M0 0 C1.99954746 -0.04254356 4.00041636 -0.04080783 6 0 C7 1 7 1 7.09765625 4.16015625 C7.08605469 5.44792969 7.07445312 6.73570313 7.0625 8.0625 C7.05347656 9.35285156 7.04445313 10.64320312 7.03515625 11.97265625 C7.02355469 12.97167969 7.01195312 13.97070312 7 15 C5.0625 15.5625 5.0625 15.5625 3 16 C2 15 2 15 1.90234375 12.71484375 C1.91394531 11.79832031 1.92554688 10.88179687 1.9375 9.9375 C1.94652344 9.01839844 1.95554688 8.09929688 1.96484375 7.15234375 C1.97644531 6.44207031 1.98804688 5.73179688 2 5 C1.01 5 0.02 5 -1 5 C-0.67 3.35 -0.34 1.7 0 0 Z " fill="#000000" transform="translate(43,10)"/>
</svg>
