<?xml version="1.0" encoding="UTF-8"?>
<svg version="1.1" xmlns="http://www.w3.org/2000/svg" width="64" height="64">
<path d="M0 0 C3.96 0 7.92 0 12 0 C12.99 2.64 13.98 5.28 15 8 C18.74691447 7.21693046 18.74691447 7.21693046 21 6 C25.05263598 5.45964854 26.53730231 5.65800605 29.875 8.125 C32 11 32 11 32.4375 14.125 C32 17 32 17 30 20 C30 20.99 30 21.98 30 23 C32.64 23.99 35.28 24.98 38 26 C38 29.96 38 33.92 38 38 C35.36 38.99 32.72 39.98 30 41 C30.78306954 44.74691447 30.78306954 44.74691447 32 47 C32.54035146 51.05263598 32.34199395 52.53730231 29.875 55.875 C27 58 27 58 23.875 58.4375 C21 58 21 58 18 56 C17.01 56 16.02 56 15 56 C14.01 58.64 13.02 61.28 12 64 C8.04 64 4.08 64 0 64 C-0.99 61.36 -1.98 58.72 -3 56 C-6.74691447 56.78306954 -6.74691447 56.78306954 -9 58 C-13.05263598 58.54035146 -14.53730231 58.34199395 -17.875 55.875 C-20 53 -20 53 -20.4375 49.875 C-20 47 -20 47 -18 44 C-18 43.01 -18 42.02 -18 41 C-20.64 40.01 -23.28 39.02 -26 38 C-26 34.04 -26 30.08 -26 26 C-22.04 24.515 -22.04 24.515 -18 23 C-18.78306954 19.25308553 -18.78306954 19.25308553 -20 17 C-20.54035146 12.94736402 -20.34199395 11.46269769 -17.875 8.125 C-15 6 -15 6 -11.875 5.5625 C-9 6 -9 6 -6 8 C-5.01 8 -4.02 8 -3 8 C-2.01 5.36 -1.02 2.72 0 0 Z M-5.375 25.875 C-7.21019695 29.40422489 -7.651794 31.08923598 -7 35 C-4.52618453 39.75733745 -1.75733745 42.52618453 3 45 C6.99979016 45.66663169 8.61367041 45.21210252 12.1875 43.25 C16.04458328 40.16433338 17.62540879 38.44485183 18.875 33.625 C19.0216639 29.37174686 18.34697245 27.52045868 16 24 C12.84407624 21.15197124 10.51237829 19.17186117 6.25 18.6875 C0.85144859 19.20659148 -1.99385424 21.78203408 -5.375 25.875 Z " fill="#000000" transform="translate(26,0)"/>
</svg>
